<?xml version="1.0" ?>
<svg width="256" height="256" xmlns="http://www.w3.org/2000/svg">
  <g>
    <path stroke="null" id="svg_2" d="m187.27937,93.73888a64.58523,64.58523 0 0 0 -127.05676,11.0382a35.22831,35.22831 0 0 0 5.87138,69.9869l46.97108,0l0,-11.74277l-46.97108,0a23.48554,23.48554 0 0 1 0,-46.97108a5.87138,5.87138 0 0 0 5.87138,-5.87138a52.84246,52.84246 0 0 1 104.68679,-10.27492a5.87138,5.87138 0 0 0 4.99068,4.69711a29.35692,29.35692 0 0 1 25.36438,29.06335l11.74277,0a41.09969,41.09969 0 0 0 -31.47062,-39.92542z"/>
    <g stroke="null">
      <polyline stroke="#000" stroke-width="8" stroke-linejoin="round" stroke-linecap="round" points="134.75,131 171.97726440429688,164.09092712402344 134.75,197.1818084716797 " fill="none"/>
      <line stroke="#000" y2="197.18182" y1="197.18182" x2="225.74999" x1="176.11362" stroke-width="8" stroke-linejoin="round" stroke-linecap="round" fill="none"/>
    </g>
  </g>
</svg>