<svg width="256" height="256" viewBox="0 0 256 256" xmlns="http://www.w3.org/2000/svg" preserveAspectRatio="xMidYMid" version="1.1">
 <defs>
  <path d="m57.90339,1.84921c-1.84921,-1.04018 -4.04515,-1.04018 -5.89436,0l-48.65734,28.08488c-1.84921,1.04018 -2.88939,3.00496 -2.88939,5.08532l0,56.28533c0,2.08036 1.15576,4.04515 2.88939,5.08533l48.65734,28.08487c1.84921,1.04018 4.04515,1.04018 5.89436,0l48.65733,-28.08487c1.84921,-1.04018 2.88939,-3.00497 2.88939,-5.08533l0,-56.28533c0,-2.08036 -1.15575,-4.04514 -2.88939,-5.08532l-48.65733,-28.08488l0,0z" id="path-2"/>
 </defs>
 <g>
  <title>Layer 1</title>
  <path stroke="null" id="svg_2" fill="#000000" d="m128,244.98899c-3.22433,0 -6.23368,-0.85983 -9.0281,-2.36451l-28.58894,-16.9814c-4.2991,-2.3645 -2.14955,-3.22431 -0.85983,-3.65424c5.80379,-1.93457 6.87854,-2.3645 12.89728,-5.80377c0.64487,-0.42991 1.50468,-0.21494 2.14955,0.21496l21.92535,13.11222c0.85981,0.42991 1.93459,0.42991 2.57946,0l85.76685,-49.6545c0.85981,-0.42991 1.28972,-1.28972 1.28972,-2.3645l0,-99.09403c0,-1.07478 -0.42991,-1.93459 -1.28972,-2.3645l-85.76685,-49.43953c-0.85983,-0.42991 -1.93459,-0.42991 -2.57946,0l-85.76685,49.43953c-0.85983,0.42991 -1.28974,1.50468 -1.28974,2.3645l0,99.09403c0,0.85981 0.42991,1.93459 1.28974,2.3645l23.43004,13.54215c12.68231,6.44864 20.63563,-1.07478 20.63563,-8.59819l0,-97.80429c0,-1.28974 1.07478,-2.57946 2.57946,-2.57946l10.96267,0c1.28974,0 2.57946,1.07478 2.57946,2.57946l0,97.80429c0,16.98142 -9.24304,26.86933 -25.36463,26.86933c-4.94396,0 -8.81313,0 -19.77582,-5.37386l-22.57022,-12.89728c-5.58881,-3.22433 -9.02808,-9.24304 -9.02808,-15.69168l0,-99.09403c0,-6.44864 3.43927,-12.46737 9.02808,-15.69168l85.76685,-49.6545c5.37386,-3.00937 12.68231,-3.00937 18.05619,0l85.76685,49.6545c5.58881,3.22431 9.02808,9.24304 9.02808,15.69168l0,99.09403c0,6.44864 -3.43927,12.46735 -9.02808,15.69168l-85.76685,49.6545c-2.79442,1.28972 -6.01873,1.93459 -9.0281,1.93459zm26.4394,-68.1406c-37.61703,0 -45.35541,-17.19636 -45.35541,-31.81326c0,-1.28972 1.07478,-2.57944 2.57946,-2.57944l11.17763,0c1.28974,0 2.36451,0.85981 2.36451,2.14953c1.71963,11.39259 6.66358,16.98142 29.44877,16.98142c18.05618,0 25.79453,-4.08414 25.79453,-13.75709c0,-5.58882 -2.14955,-9.67297 -30.30858,-12.46737c-23.43004,-2.3645 -38.04696,-7.52341 -38.04696,-26.22446c0,-17.41131 14.61692,-27.72912 39.12173,-27.72912c27.51418,0 41.05631,9.458 42.77595,30.09364c0,0.64485 -0.21496,1.28972 -0.64487,1.93459c-0.42991,0.42991 -1.07478,0.85981 -1.71965,0.85981l-11.17763,0c-1.07478,0 -2.14955,-0.85981 -2.3645,-1.93459c-2.57946,-11.8225 -9.24304,-15.69168 -26.86931,-15.69168c-19.77582,0 -22.14032,6.87854 -22.14032,12.03744c0,6.23369 2.7944,8.16828 29.44877,11.60756c26.4394,3.43927 38.90675,8.38323 38.90675,26.86931c-0.21494,18.91599 -15.69166,29.66371 -42.9909,29.66371z"/>
 </g>
</svg>